<?xml version="1.0" encoding="utf-8"?>
<!-- Generator: Adobe Illustrator 24.3.0, SVG Export Plug-In . SVG Version: 6.00 Build 0)  -->
<svg version="1.1" id="Layer_1" xmlns="http://www.w3.org/2000/svg" xmlns:xlink="http://www.w3.org/1999/xlink" x="0px" y="0px"
	 viewBox="0 0 50 51" style="enable-background:new 0 0 50 51;" xml:space="preserve">
<style type="text/css">
	.st0{fill:#FFFFFF;}
	.st1{fill:#749A3D;}
	.st2{fill:#FC020C;}
</style>
<g>
	<path class="st0" d="M47.9,25.5c0,12.53-10.16,22.69-22.69,22.69c-12.53,0-22.68-10.16-22.68-22.69
		c0-12.53,10.16-22.68,22.68-22.68C37.75,2.81,47.9,12.97,47.9,25.5z"/>
	<path class="st1" d="M25.22,50c-13.51,0-24.5-10.99-24.5-24.5S11.71,1,25.22,1s24.5,10.99,24.5,24.5S38.73,50,25.22,50z
		 M25.22,4.63c-11.51,0-20.87,9.36-20.87,20.87s9.36,20.87,20.87,20.87c11.51,0,20.87-9.36,20.87-20.87S36.73,4.63,25.22,4.63z"/>
</g>
<circle class="st2" cx="25.22" cy="25.5" r="10.86"/>
</svg>
