<?xml version="1.0" encoding="utf-8"?>
<!-- Generator: Adobe Illustrator 24.1.0, SVG Export Plug-In . SVG Version: 6.00 Build 0)  -->
<svg version="1.1" id="Layer_1" xmlns="http://www.w3.org/2000/svg" xmlns:xlink="http://www.w3.org/1999/xlink" x="0px" y="0px"
	 viewBox="0 0 253 259" style="enable-background:new 0 0 253 259;" xml:space="preserve">
<style type="text/css">
	.st0{fill:#85B439;}
	.st1{fill:#6DB525;}
</style>
<g>
	<path class="st0" d="M126.65,248.82c-65.3,0-118.42-53.12-118.42-118.41S61.36,12,126.65,12c65.29,0,118.4,53.12,118.4,118.41
		S191.94,248.82,126.65,248.82z M126.65,36.32c-51.89,0-94.1,42.21-94.1,94.09s42.21,94.09,94.1,94.09
		c51.88,0,94.08-42.21,94.08-94.09S178.53,36.32,126.65,36.32z"/>
</g>
<g>
	<path class="st1" d="M111.51,202.78l-17.19-17.19l54.07-54.06L93,74.57l17.43-16.96l63.74,65.55c4.64,4.77,4.58,12.37-0.12,17.08
		L111.51,202.78z"/>
</g>
</svg>
