<?xml version="1.0" encoding="utf-8"?>
<!-- Generator: Adobe Illustrator 24.1.0, SVG Export Plug-In . SVG Version: 6.00 Build 0)  -->
<svg version="1.1" id="Layer_1" xmlns="http://www.w3.org/2000/svg" xmlns:xlink="http://www.w3.org/1999/xlink" x="0px" y="0px"
	 viewBox="0 0 1366 768" style="enable-background:new 0 0 1366 768;" xml:space="preserve">
<style type="text/css">
	.st0{fill:#2F2925;}
	.st1{fill:#87B639;}
	.st2{fill-rule:evenodd;clip-rule:evenodd;fill:#FF020C;}
</style>
<g>
	<path class="st0" d="M505.24,307.98c10.2,8.52,15.3,21.66,15.3,39.41c0,17.75-5.21,30.75-15.62,38.99
		c-10.41,8.25-26.38,12.37-47.9,12.37h-26v42.97H406.3V295.2h50.31C478.83,295.2,495.04,299.46,505.24,307.98z M487.74,368.47
		c4.95-5.25,7.44-12.93,7.44-23.07c0-10.13-3.14-17.29-9.43-21.48c-6.29-4.2-16.14-6.29-29.56-6.29h-25.16v58.7h28.72
		C473.45,376.33,482.78,373.7,487.74,368.47z"/>
	<path class="st0" d="M539.2,441.72V295.2h24.73v123.05h66.88v23.47H539.2z"/>
	<path class="st0" d="M647.37,295.2h24.73v146.52h-24.73V295.2z"/>
	<path class="st0" d="M812.24,295.19h24.73v146.53h-26.83l-83.01-106.91v106.91H702.4V295.19h24.74l85.11,109.42V295.19z"/>
	<path class="st0" d="M1100.85,441.72h-27.66l-58.91-146.53h27.68l45.07,109.42l45.07-109.42h27.68L1100.85,441.72z"/>
	<path class="st0" d="M1200.42,295.19h27.67L1287,441.72h-27.67l-45.07-109.42l-45.07,109.42h-27.68L1200.42,295.19z"/>
	<path class="st0" d="M1010.06,361.44c-1.43-17.86-8.5-33.01-21.23-45.44c-14.33-14-32.06-21-53.16-21c-21.1,0-38.84,7-53.17,21
		c-14.34,14-21.5,31.46-21.5,52.36c0,20.12,6.65,37.02,19.94,50.74c0.51,0.53,1.02,1.07,1.56,1.6c14.33,14.01,32.07,21,53.17,21
		c21.11,0,38.83-7,53.16-21c14.34-14,21.51-31.45,21.51-52.35C1010.34,366.01,1010.23,363.7,1010.06,361.44z M971.27,404.78
		c-9.66,10.02-21.53,15.02-35.6,15.02c-8.64,0-16.45-1.91-23.44-5.68c-4.38-2.38-8.44-5.47-12.17-9.34
		c-9.68-10.01-14.51-22.14-14.51-36.42c0-14.27,4.83-26.41,14.51-36.43c9.67-10.01,21.54-15.02,35.61-15.02
		c14.07,0,25.94,5.01,35.6,15.02c9.6,9.93,14.43,21.97,14.5,36.1c0,0.12,0.01,0.21,0.01,0.33
		C985.79,382.64,980.95,394.78,971.27,404.78z"/>
	<path class="st0" d="M304.07,295.2h27.68l58.9,146.52h-27.67L317.92,332.3l-45.07,109.42h-27.67L304.07,295.2z"/>
	<path class="st1" d="M974.21,366.21c-2,0.5-3.97,1.07-5.91,1.77c-1.98,0.71-3.92,1.53-5.78,2.47c-2.9,1.46-5.64,3.17-8.3,4.98
		c-3.29,2.23-6.44,4.62-9.58,7.02c-2.81,2.14-5.61,4.3-8.5,6.36c-1.85,1.32-3.74,2.59-5.7,3.76c-1.63,0.98-3.34,1.85-5.09,2.62
		c-0.71,0.31-1.43,0.61-2.16,0.89c-1.64,0.65-3.32,1.21-5.02,1.69c-5.24,1.45-10.51,2.16-15.83,1.89
		c10.95,13.68,31.55,18.92,50.84,11.58c20.8-7.92,29.5-27.3,26.33-46.08C978.61,365.26,976.23,365.72,974.21,366.21z"/>
	<path class="st2" d="M646.44,482.45c0-3.49,0.09-7.01-0.04-10.51c-0.04-1.55,0.49-1.88,1.92-1.85c7.16,0.06,14.31,0.06,21.47,0
		c1.34,0,1.82,0.24,1.82,1.73c-0.09,7.23-0.09,14.44,0,21.7c0,1.34-0.45,1.61-1.7,1.58c-7.23-0.03-14.45-0.06-21.69,0.03
		c-1.61,0.03-1.83-0.56-1.8-1.97C646.5,489.61,646.44,486.03,646.44,482.45z"/>
	<path class="st0" d="M83,356.71c0,69.34,45.21,132.56,110.46,155.25c-6.64-15.54-10.82-32.12-12.75-50.55
		c-0.29-2.66-0.5-5.36-0.65-8.06c-33.37-27.49-52.49-70.47-52.49-118.07c0-21.72,4.02-43.3,11.94-64.12
		c10.79-28.34,28.16-51.8,50.64-68.56C126.44,226.17,83,287.71,83,356.71z"/>
	<path class="st1" d="M189.21,385.24c3.3-11.14,7.06-22.29,10.69-33.07l1.73-5.15c5.01-14.9,9.47-28.39,13.27-42.51
		c3.58-13.29,5.83-24.39,7.09-34.94c0.87-7.45,1.23-15.16,1.05-22.91c-0.17-7.19-0.8-14.75-1.89-22.46
		c-1.02-7.31-2.49-14.87-4.36-22.46c-0.41-1.66-0.85-3.31-1.32-4.96c-31.29,15.57-54.85,42.26-68.2,77.34
		c-7.56,19.87-11.39,40.45-11.39,61.17c0,42.17,15.94,80.82,43.87,106.77l0.01-1.11c0.03-1.97,0.09-3.92,0.19-5.84l0.03-1.05
		c0.01-0.55,0.03-1.15,0.05-1.73c0.42-7.39,1.35-14.73,2.77-21.83C184.32,402.9,186.36,394.88,189.21,385.24z"/>
</g>
</svg>
